<svg width="21" height="12" viewBox="0 0 21 12" fill="none" xmlns="http://www.w3.org/2000/svg">
<path d="M0.148432 1.03891C0.148464 0.889903 0.193174 0.744254 0.276907 0.620381C0.36064 0.496507 0.479633 0.399975 0.618841 0.34299C0.758049 0.286005 0.911217 0.271127 1.05897 0.30024C1.20673 0.329352 1.34244 0.401146 1.44894 0.506542L10.2996 9.25995L19.1503 0.506542C19.2939 0.369314 19.4863 0.29338 19.6861 0.295097C19.8858 0.296813 20.0768 0.376042 20.2181 0.515719C20.3593 0.655396 20.4394 0.844345 20.4411 1.04187C20.4429 1.2394 20.3661 1.42969 20.2273 1.57178L10.8379 10.858C10.695 10.9993 10.5013 11.0786 10.2994 11.0786C10.0974 11.0786 9.90366 10.9993 9.76082 10.858L0.371363 1.57178C0.30064 1.50179 0.244553 1.4187 0.206301 1.32727C0.168051 1.23584 0.148386 1.13786 0.148432 1.03891Z" fill="#FFFBF5"/>
</svg>
