<svg width="16.000000" height="19.000000" viewBox="0 0 16 19" fill="none" xmlns="http://www.w3.org/2000/svg" xmlns:xlink="http://www.w3.org/1999/xlink">
	<desc>
			Created with Pixso.
	</desc>
	<defs/>
	<path id="Union" d="M9.81427 0.0137177L14.5973 2.79625C14.6636 2.83481 14.6636 2.93056 14.5973 2.96912L9.81427 5.75165C9.74756 5.79044 9.66394 5.74234 9.66394 5.66521L9.66394 3.38268L3.13 3.38268Q2.34723 3.38268 1.7204 3.62216Q1.20551 3.81886 0.826843 4.16472L0.826782 4.16476Q0.791809 4.19672 0.757996 4.22993Q0.570557 4.41412 0.427673 4.6281L0.427612 4.62814Q0.287354 4.83829 0.190063 5.07718Q0.108093 5.27856 0.0614624 5.48784Q0.00012207 5.76338 0.00012207 6.05258Q0.00012207 6.3418 0.0614624 6.61736L0.0614624 6.61737Q0.108093 6.82661 0.190063 7.02798Q0.287354 7.26688 0.427673 7.47704L0.427673 7.47705L0.427673 7.47705Q0.570496 7.69104 0.757996 7.87523Q0.791748 7.90837 0.826599 7.94025L0.826782 7.94038Q1.20544 8.28627 1.7204 8.483Q2.34723 8.72249 3.13 8.72249L10.8738 8.72249Q11.8412 8.72249 12.6404 9.02783Q13.2538 9.26219 13.7303 9.66034Q13.8423 9.75386 13.9467 9.85641Q14.2079 10.113 14.4071 10.4111L14.4071 10.4111L14.4071 10.4111L14.4072 10.4111Q14.6038 10.7053 14.74 11.0399Q14.8589 11.3319 14.9242 11.6354Q15.0038 12.0054 15.0038 12.3924Q15.0038 12.7794 14.9242 13.1494L14.9242 13.1494Q14.8589 13.4529 14.74 13.7449Q14.6038 14.0795 14.4072 14.3737L14.407 14.374Q14.2078 14.6719 13.9467 14.9284Q13.8423 15.031 13.7303 15.1245L13.7302 15.1246Q13.2537 15.5226 12.6404 15.757Q11.8412 16.0623 10.8738 16.0623L4.04706 16.0623C3.81812 17.1692 2.84442 18.0007 1.67798 18.0007C0.341492 18.0007 -0.741943 16.909 -0.741943 15.5623C-0.741943 14.2157 0.341492 13.1239 1.67798 13.1239C2.84442 13.1239 3.81812 13.9555 4.047 15.0623L10.8738 15.0623Q11.6567 15.0623 12.2835 14.8228Q12.7985 14.6261 13.1771 14.2802L13.1775 14.2799Q13.2123 14.2481 13.2459 14.215Q13.4334 14.0308 13.5763 13.8168Q13.7166 13.6067 13.8138 13.3678Q13.8958 13.1664 13.9424 12.9571L13.9426 12.9565Q14.0038 12.6813 14.0038 12.3924Q14.0038 12.1035 13.9426 11.8283L13.9424 11.8277Q13.8958 11.6184 13.8138 11.417Q13.7166 11.1781 13.5763 10.968L13.576 10.9676Q13.4332 10.7538 13.2459 10.5698Q13.213 10.5374 13.179 10.5063L13.1771 10.5046Q12.7985 10.1587 12.2835 9.96198Q11.6567 9.72249 10.8738 9.72249L3.13 9.72249Q2.16266 9.72249 1.36346 9.41714Q0.750122 9.1828 0.27356 8.78468Q0.161621 8.69115 0.0571899 8.58856Q-0.203979 8.33197 -0.403198 8.03395L-0.403198 8.03392Q-0.599854 7.73969 -0.736084 7.40508Q-0.85498 7.11313 -0.920288 6.80963L-0.920288 6.80962L-0.920288 6.8096L-0.920288 6.80959Q-0.999878 6.43965 -0.999878 6.05258Q-0.999878 5.6657 -0.920349 5.29591L-0.920288 5.29561L-0.920288 5.29558Q-0.85498 4.99207 -0.736084 4.70009Q-0.599854 4.36548 -0.403198 4.07126L-0.403198 4.07124Q-0.203979 3.77321 0.0571899 3.5166Q0.161621 3.41402 0.27356 3.32047L0.273621 3.32043Q0.750122 2.92235 1.36346 2.68802Q2.16266 2.38268 3.13 2.38268L9.66394 2.38268L9.66394 0.100143C9.66394 0.0230255 9.74756 -0.0250702 9.81427 0.0137177Z" clip-rule="evenodd" fill="#FFFBF5" fill-opacity="1.000000" fill-rule="evenodd"/>
</svg>
