<svg width="18" height="19" viewBox="0 0 18 19" fill="none" xmlns="http://www.w3.org/2000/svg">
<path d="M10.6179 11.6058C9.1476 12.8896 6.94908 13.2941 5.09962 12.5379C2.86959 11.6262 1.44906 9.06149 1.8757 6.67528C2.30259 4.28743 4.52275 2.35596 7.0054 2.3009C7.05109 2.30015 7.09678 2.29989 7.1426 2.30002C9.58259 2.32318 11.8829 4.20605 12.3348 6.64263C12.6378 8.27579 12.1154 10.0402 10.982 11.2537L15.3847 15.534C15.4791 15.6338 15.4628 15.6669 15.4613 15.7225C15.456 15.9155 15.1942 16.0423 15.0317 15.897L10.6179 11.6058ZM7.07716 2.80627C4.89928 2.8269 2.85567 4.47348 2.4027 6.61719C2.06934 8.1953 2.59445 9.92883 3.7492 11.0561C5.07532 12.3506 7.17436 12.7852 8.92523 12.0693C10.9506 11.2413 12.2389 8.90089 11.8371 6.73489C11.4388 4.58751 9.45008 2.85702 7.20145 2.80703C7.15993 2.8064 7.11855 2.80614 7.07716 2.80627Z" fill="#454545" stroke="#454545" stroke-width="0.6"/>
</svg>
