<svg width="16.000000" height="16.000000" viewBox="0 0 16 16" fill="none" xmlns="http://www.w3.org/2000/svg" xmlns:xlink="http://www.w3.org/1999/xlink">
	<desc>
			Created with Pixso.
	</desc>
	<defs>
		<clipPath id="clip194_1488">
			<rect id="Info" width="16.000000" height="16.000000" fill="white" fill-opacity="0"/>
		</clipPath>
	</defs>
	<rect id="Info" width="16.000000" height="16.000000" fill="#FFFFFF" fill-opacity="0"/>
	<g clip-path="url(#clip194_1488)">
		<path id="Vector" d="M8.04 5.19C8.55 5.19 8.96 4.78 8.96 4.27C8.96 3.76 8.55 3.35 8.04 3.35C7.53 3.35 7.11 3.76 7.11 4.27C7.11 4.78 7.53 5.19 8.04 5.19Z" fill="#454545" fill-opacity="1.000000" fill-rule="nonzero"/>
		<path id="Vector" d="M8.66 6.42L8.66 6.1L8.66 5.81L6.82 5.81L6.82 6.42L7.43 6.42L7.43 11.65L6.82 11.65L6.82 12.26L9.28 12.26L9.28 11.65L8.66 11.65L8.66 6.42Z" fill="#454545" fill-opacity="1.000000" fill-rule="nonzero"/>
		<path id="Vector" d="M8 0.3C3.75 0.3 0.31 3.74 0.31 7.98C0.31 12.23 3.75 15.67 8 15.67C12.24 15.67 15.69 12.23 15.69 7.98C15.69 3.74 12.24 0.3 8 0.3ZM8 15.06C4.1 15.06 0.93 11.88 0.93 7.98C0.93 4.08 4.1 0.91 8 0.91C11.9 0.91 15.07 4.08 15.07 7.98C15.07 11.88 11.9 15.06 8 15.06Z" fill="#454545" fill-opacity="1.000000" fill-rule="nonzero"/>
	</g>
</svg>
