<svg width="18" height="19"  fill="none" xmlns="http://www.w3.org/2000/svg">
  <symbol id="magnifier" viewBox="0 0 18 19">
  <path d="M10.6179 11.6058C9.1476 12.8896 6.94908 13.2941 5.09962 12.5379C2.86959 11.6262 1.44906 9.06149 1.8757 6.67528C2.30259 4.28743 4.52275 2.35596 7.0054 2.3009C7.05109 2.30015 7.09678 2.29989 7.1426 2.30002C9.58259 2.32318 11.8829 4.20605 12.3348 6.64263C12.6378 8.27579 12.1154 10.0402 10.982 11.2537L15.3847 15.534C15.4791 15.6338 15.4628 15.6669 15.4613 15.7225C15.456 15.9155 15.1942 16.0423 15.0317 15.897L10.6179 11.6058ZM7.07716 2.80627C4.89928 2.8269 2.85567 4.47348 2.4027 6.61719C2.06934 8.1953 2.59445 9.92883 3.7492 11.0561C5.07532 12.3506 7.17436 12.7852 8.92523 12.0693C10.9506 11.2413 12.2389 8.90089 11.8371 6.73489C11.4388 4.58751 9.45008 2.85702 7.20145 2.80703C7.15993 2.8064 7.11855 2.80614 7.07716 2.80627Z" fill="#454545" stroke="#454545" stroke-width="0.6"/>
  </symbol>
</svg>


<svg width="21" height="12"  fill="none" xmlns="http://www.w3.org/2000/svg">
  <symbol id="arrow-down" viewBox="0 0 21 12"> 
  <path d="M0.148432 1.03891C0.148464 0.889903 0.193174 0.744254 0.276907 0.620381C0.36064 0.496507 0.479633 0.399975 0.618841 0.34299C0.758049 0.286005 0.911217 0.271127 1.05897 0.30024C1.20673 0.329352 1.34244 0.401146 1.44894 0.506542L10.2996 9.25995L19.1503 0.506542C19.2939 0.369314 19.4863 0.29338 19.6861 0.295097C19.8858 0.296813 20.0768 0.376042 20.2181 0.515719C20.3593 0.655396 20.4394 0.844345 20.4411 1.04187C20.4429 1.2394 20.3661 1.42969 20.2273 1.57178L10.8379 10.858C10.695 10.9993 10.5013 11.0786 10.2994 11.0786C10.0974 11.0786 9.90366 10.9993 9.76082 10.858L0.371363 1.57178C0.30064 1.50179 0.244553 1.4187 0.206301 1.32727C0.168051 1.23584 0.148386 1.13786 0.148432 1.03891Z" fill="#FFFBF5"/>
</symbol>
</svg>








